<?xml version="1.0" encoding="UTF-8" standalone="no"?>
<!-- http://code.google.com/p/vector-playing-cards/ -->

<svg
   width="167.0869141pt"
   height="242.6669922pt"
   viewBox="0 0 167.0869141 242.6669922"
   xml:space="preserve"
   id="svg2"
   version="1.1"
   inkscape:version="1.4.2 (f4327f4, 2025-05-13)"
   sodipodi:docname="ace_of_spades.svg"
   xmlns:inkscape="http://www.inkscape.org/namespaces/inkscape"
   xmlns:sodipodi="http://sodipodi.sourceforge.net/DTD/sodipodi-0.dtd"
   xmlns="http://www.w3.org/2000/svg"
   xmlns:svg="http://www.w3.org/2000/svg"
   xmlns:rdf="http://www.w3.org/1999/02/22-rdf-syntax-ns#"
   xmlns:cc="http://creativecommons.org/ns#"
   xmlns:dc="http://purl.org/dc/elements/1.1/"><metadata
   id="metadata43"><rdf:RDF><cc:Work
       rdf:about=""><dc:format>image/svg+xml</dc:format><dc:type
         rdf:resource="http://purl.org/dc/dcmitype/StillImage" /></cc:Work></rdf:RDF></metadata><defs
   id="defs41" /><sodipodi:namedview
   pagecolor="#ffffff"
   bordercolor="#666666"
   borderopacity="1"
   objecttolerance="10"
   gridtolerance="10"
   guidetolerance="10"
   inkscape:pageopacity="0"
   inkscape:pageshadow="2"
   inkscape:window-width="1920"
   inkscape:window-height="1009"
   id="namedview39"
   showgrid="true"
   inkscape:zoom="2.4941587"
   inkscape:cx="111.25996"
   inkscape:cy="161.77799"
   inkscape:window-x="1912"
   inkscape:window-y="-8"
   inkscape:window-maximized="1"
   inkscape:current-layer="svg2"
   inkscape:showpageshadow="2"
   inkscape:pagecheckerboard="0"
   inkscape:deskcolor="#d1d1d1"
   inkscape:document-units="pt"
   inkscape:lockguides="true"><inkscape:grid
     id="grid1"
     units="pt"
     originx="0"
     originy="0"
     spacingx="1"
     spacingy="0.99999997"
     empcolor="#0099e5"
     empopacity="0.30196078"
     color="#0099e5"
     opacity="0.14901961"
     empspacing="5"
     enabled="true"
     visible="true" /></sodipodi:namedview>
	<g
   id="Layer_x0020_1"
   style="fill-rule:nonzero;clip-rule:nonzero;stroke:#000000;stroke-miterlimit:4;">
		<path
   style="fill:#FFFFFF;stroke-width:0.5;"
   d="M166.8369141,235.5478516c0,3.7773438-3.0869141,6.8691406-6.8710938,6.8691406H7.1108398c-3.7749023,0-6.8608398-3.0917969-6.8608398-6.8691406V7.1201172C0.25,3.3427734,3.3359375,0.25,7.1108398,0.25h152.8549805    c3.7841797,0,6.8710938,3.0927734,6.8710938,6.8701172v228.4277344z"
   id="path5" />
		<g
   style="stroke:none;"
   id="g7">
			<g
   id="g9">
				
			</g>
			
		</g>
		<g
   id="g15">
			
		</g>
		<g
   id="g19">
			
		</g>
		<g
   style="stroke:none;"
   id="g23">
			<g
   id="g25">
				
			</g>
			
		</g>
		<g
   style="stroke:none;"
   id="g31">
			<g
   id="g33">
				
			</g>
			
		</g>
	</g>
<text
   xml:space="preserve"
   style="font-size:32px;font-style:normal;font-weight:normal;line-height:125%;letter-spacing:0px;word-spacing:0px;fill:#000000;fill-opacity:1;stroke:none;font-family:Bitstream Vera Sans"
   x="6.2456665"
   y="28.013288"
   id="text3788"><tspan
     sodipodi:role="line"
     id="tspan3790"
     x="6.2456665"
     y="28.013288"
     style="font-style:normal;font-variant:normal;font-weight:normal;font-stretch:normal;font-family:Arial;-inkscape-font-specification:Arial">A</tspan></text>
<g
   transform="matrix(1.5085945,0,0,1.3793253,16.929041,45.066155)"
   id="layer1-7"><path
     id="sl"
     d="M 7.989,3.103 C 7.747,-0.954 0.242,-8.59 0,-10.5 c -0.242,1.909 -7.747,9.545 -7.989,13.603 -0.169,2.868 1.695,4.057 3.39,4.057 1.8351685,-0.021581 3.3508701,-2.8006944 3.873,-3.341 0.242,0.716 -1.603,6.682 -2.179,6.682 l 5.811,0 C 2.33,10.501 0.485,4.535 0.727,3.819 1.1841472,4.3152961 2.5241276,7.0768295 4.601,7.16 6.295,7.159 8.158,5.971 7.989,3.103 z"
     inkscape:connector-curvature="0"
     style="fill:#000000"
     sodipodi:nodetypes="cccccccccc" /></g><text
   xml:space="preserve"
   style="font-size:32px;font-style:normal;font-weight:normal;line-height:125%;letter-spacing:0px;word-spacing:0px;fill:#000000;fill-opacity:1;stroke:none;font-family:Bitstream Vera Sans"
   x="-160.9081"
   y="-215.09668"
   id="text3788-2"
   transform="scale(-1,-1)"><tspan
     sodipodi:role="line"
     id="tspan3790-3"
     x="-160.9081"
     y="-215.09668"
     style="font-style:normal;font-variant:normal;font-weight:normal;font-stretch:normal;font-family:Arial;-inkscape-font-specification:Arial">A</tspan></text>
<g
   transform="matrix(-1.5085945,0,0,-1.3793253,150.22472,198.04381)"
   id="layer1-7-8"><path
     id="sl-0"
     d="M 7.989,3.103 C 7.747,-0.954 0.242,-8.59 0,-10.5 c -0.242,1.909 -7.747,9.545 -7.989,13.603 -0.169,2.868 1.695,4.057 3.39,4.057 1.8351685,-0.021581 3.3508701,-2.8006944 3.873,-3.341 0.242,0.716 -1.603,6.682 -2.179,6.682 l 5.811,0 C 2.33,10.501 0.485,4.535 0.727,3.819 1.1841472,4.3152961 2.5241276,7.0768295 4.601,7.16 6.295,7.159 8.158,5.971 7.989,3.103 z"
     inkscape:connector-curvature="0"
     style="fill:#000000"
     sodipodi:nodetypes="cccccccccc" /></g><path
   style="fill:#000000;stroke-width:0.462967"
   d="m 81.654821,152.51245 c -3.623025,-9.2e-4 -6.617938,-0.0335 -6.655359,-0.0697 -0.03743,-0.0363 0.25761,-0.31681 0.655626,-0.62331 1.448997,-1.11583 2.697734,-2.97538 4.138606,-6.16301 0.99025,-2.19072 1.308842,-3.0698 1.63778,-4.51901 0.526374,-2.31909 0.509302,-3.90617 -0.04923,-4.57526 l -0.267756,-0.32076 -1.078725,1.13327 c -1.199239,1.25988 -2.75971,2.33265 -4.500788,3.09415 -1.907198,0.83413 -3.141218,1.10096 -5.235943,1.13224 -1.652029,0.0247 -2.007676,-0.0184 -3.188283,-0.38595 -2.98052,-0.92784 -5.396023,-3.05322 -6.802856,-5.98576 -0.847506,-1.76658 -1.064068,-2.7453 -1.10501,-4.99391 -0.03313,-1.81919 0.0063,-2.17271 0.420059,-3.75776 0.646017,-2.47532 1.969498,-5.53797 3.316903,-7.67556 1.637651,-2.59807 5.413611,-7.42014 9.404354,-12.00987 3.283486,-3.7763 4.606489,-5.45871 6.897267,-8.770943 2.437227,-3.524001 3.404788,-5.213466 3.866366,-6.751135 0.184518,-0.614681 0.368963,-1.117722 0.409875,-1.117856 0.0409,-2.3e-5 0.279688,0.610643 0.530603,1.357274 0.99795,2.969585 3.580294,7.03482 7.324268,11.53021 0.666607,0.80039 2.607549,3.07996 4.313211,5.0657 5.586171,6.50343 7.944451,9.77761 10.027771,13.92229 1.61322,3.20948 2.24967,5.68332 2.17353,8.44874 -0.0972,3.5342 -1.22914,6.03087 -3.85265,8.49802 -1.08075,1.01633 -2.73831,1.97876 -4.056089,2.35506 -0.40742,0.11632 -1.510214,0.26595 -2.450628,0.33242 -2.815833,0.19909 -4.915046,-0.35259 -7.840201,-2.06045 -1.371811,-0.80093 -2.922353,-2.09474 -3.350841,-2.79602 -0.346255,-0.56667 -0.611661,-0.53053 -0.871625,0.11867 -0.437134,1.09171 -0.507138,2.0751 -0.241075,3.3866 0.829695,4.08982 3.482267,9.32796 5.760015,11.37452 l 0.920357,0.82693 -1.831114,0.002 c -1.007111,9.1e-4 -4.795408,2.4e-4 -8.418432,-0.002 z m 6.014039,-2.16291 c -0.713912,-0.57077 -2.260637,-2.77393 -3.026675,-4.31121 -0.796625,-1.59861 -1.040149,-2.77262 -0.814873,-3.92858 0.09237,-0.47401 0.202093,-1.03681 0.24383,-1.25069 0.04867,-0.24938 -0.05569,-0.63845 -0.290932,-1.08473 l -0.366808,-0.69586 -0.410975,0.78267 -0.410973,0.78268 0.271427,0.72088 c 0.400423,1.06343 0.304584,2.60856 -0.233963,3.77213 -0.680596,1.47049 -2.961273,4.85652 -3.548693,5.26862 -0.687795,0.48251 -0.382189,0.46675 0.928321,-0.0478 0.944312,-0.37085 1.245856,-0.41547 2.912954,-0.43118 1.915405,-0.0181 3.662947,0.23036 4.425539,0.62915 0.709038,0.37075 0.894614,0.25197 0.321821,-0.20599 z m -2.746666,-0.95656 c -0.884844,-0.19327 -3.115112,-0.13736 -3.941436,0.0987 -0.366351,0.10463 -0.365466,0.10023 0.08112,-0.40513 0.614476,-0.6954 1.002757,-1.43197 1.730419,-3.28265 0.559539,-1.42307 0.631626,-1.53656 0.763341,-1.20169 0.08,0.20339 0.397945,1.05743 0.706556,1.89784 0.54035,1.47151 0.876563,2.08638 1.527125,2.79288 0.341158,0.3705 0.36081,0.36823 -0.867119,0.1 z M 99.64745,139.32866 c 2.07247,-0.79038 3.99448,-2.63807 5.00472,-4.81115 0.63581,-1.36764 0.86166,-2.19287 1.05416,-3.85196 0.26992,-2.326 -0.12273,-4.41322 -1.38731,-7.3746 -1.67162,-3.91459 -4.02094,-7.13326 -8.931251,-12.23618 -7.464679,-7.75753 -9.314253,-10.17136 -11.07076,-14.448266 -0.300638,-0.732037 -0.596386,-1.614766 -0.657227,-1.961649 -0.06083,-0.346893 -0.154904,-0.628235 -0.209041,-0.625238 -0.05414,0.0028 -0.26937,0.566296 -0.478295,1.251713 -1.256779,4.123013 -4.090164,8.09645 -10.681892,14.97996 -4.594659,4.79801 -5.309609,5.64916 -7.193348,8.56364 -2.460624,3.80701 -3.594719,6.87095 -3.721859,10.05527 -0.200478,5.0212 2.430759,9.31345 6.435369,10.49781 2.448516,0.72413 5.810393,0.13667 8.458914,-1.47829 2.127835,-1.29744 3.211213,-2.36792 4.030274,-3.98229 0.263326,-0.51903 0.502812,-0.97292 0.532187,-1.00872 0.02937,-0.0359 0.29626,0.16114 0.593066,0.43753 0.519705,0.48397 1.430294,2.03024 1.807587,3.06942 l 0.181549,0.50006 0.488397,-1.16737 c 0.324328,-0.77525 0.755494,-1.46467 1.283506,-2.05233 l 0.795111,-0.88494 0.531334,1.05792 c 1.212516,2.41415 4.596649,4.80182 8.043311,5.67495 1.473344,0.37325 3.823008,0.27849 5.091498,-0.20529 z m -3.941131,-0.11495 c -1.254417,-0.14886 -2.042252,-0.38942 -3.351201,-1.02328 -3.441518,-1.66654 -5.256323,-3.51895 -5.608521,-5.72482 -0.06191,-0.3878 -0.18233,-0.70403 -0.267586,-0.70275 -0.504978,0.008 -2.126618,1.88538 -2.685328,3.10958 -0.12672,0.27766 -0.288346,0.5057 -0.359178,0.50676 -0.07082,9.2e-4 -0.277048,-0.28043 -0.458263,-0.62553 -0.524671,-0.99911 -1.502583,-2.28349 -2.04275,-2.68288 -0.545121,-0.40309 -0.543027,-0.40427 -0.80173,0.45629 -0.276727,0.92053 -0.844187,2.03078 -1.396923,2.7331 -0.564049,0.7167 -2.951169,2.41782 -4.176287,2.97611 -2.753042,1.25454 -5.995291,1.26752 -8.174358,0.0327 -1.866508,-1.0577 -3.263974,-3.01738 -3.959277,-5.55218 -0.982819,-3.58292 -0.436023,-6.95592 1.782092,-10.99307 2.042939,-3.7183 3.30451,-5.39246 7.066013,-9.37674 6.23563,-6.60499 9.372058,-10.67252 11.187913,-14.509281 0.754575,-1.594343 0.92216,-1.512751 0.495468,0.241247 -0.728993,2.996664 -5.620944,10.254714 -13.092376,19.424804 -2.013605,2.47141 -4.18288,6.10492 -4.848168,8.12061 -0.913763,2.76856 -1.045871,4.99836 -0.43121,7.27818 0.873848,3.24118 2.679621,5.11214 5.321578,5.51369 3.832098,0.58244 7.259768,-2.19405 9.52914,-7.71881 l 0.547873,-1.33378 0.751427,1.12523 c 0.815172,1.22071 2.471977,2.95944 2.815108,2.95433 0.263383,-0.005 2.202197,-2.08678 2.840503,-3.05153 0.258343,-0.39045 0.506441,-0.71217 0.551336,-0.71497 0.04491,-0.003 0.174968,0.24464 0.289054,0.54981 0.114083,0.30519 0.474475,1.07846 0.800868,1.71843 2.312328,4.53379 5.377854,6.75729 8.923589,6.47247 1.576642,-0.12664 2.716791,-0.79734 3.818625,-2.24622 1.19382,-1.56986 1.75852,-3.03817 1.95061,-5.07201 0.21333,-2.25867 -0.35627,-4.74973 -1.75524,-7.67635 -0.7841,-1.64034 -3.10406,-4.98373 -4.945819,-7.12763 -3.600634,-4.19131 -9.559964,-12.53583 -11.197304,-15.67898 -0.424456,-0.814809 -0.972012,-2.601944 -1.105957,-3.60965 -0.108253,-0.814465 0.05755,-0.648485 0.493707,0.494218 0.710856,1.862357 2.466424,4.647052 4.409776,6.994862 1.2181,1.47163 2.562153,2.95426 5.935757,6.54781 2.174049,2.3158 3.551308,3.90789 5.111279,5.90847 2.667531,3.42107 4.860021,7.95534 5.387201,11.14139 0.51467,3.11034 -0.72835,7.00218 -2.89311,9.05813 -0.84454,0.8021 -2.521756,1.6739 -3.764561,1.95676 -1.057994,0.24081 -1.430343,0.25538 -2.69377,0.10546 z m -1.315265,-1.66819 c -1.262658,-0.45934 -2.315509,-1.13985 -3.153284,-2.0381 -1.489272,-1.59678 -3.039155,-4.28382 -3.747597,-6.4972 -0.370814,-1.15855 -0.500962,-1.32701 -0.647963,-0.83869 -0.302341,1.00429 -2.939749,4.82081 -3.334602,4.8254 -0.280047,0.005 -1.500777,-1.57863 -2.663602,-3.45166 -0.602507,-0.9705 -1.114846,-1.78333 -1.138529,-1.80633 -0.02369,-0.0229 -0.17916,0.49887 -0.345504,1.15971 -0.760276,3.02026 -3.029648,6.64611 -5.008821,8.00276 -2.793698,1.915 -6.93282,1.0712 -8.194869,-1.6706 -0.336124,-0.73021 -0.623478,-2.26275 -0.424829,-2.26574 0.06812,-9.2e-4 0.124877,0.0666 0.126128,0.15011 0.005,0.33063 0.852619,1.36951 1.430057,1.75259 2.265727,1.50311 4.450872,1.25833 6.970681,-0.78084 1.96981,-1.59409 3.794047,-5.19061 3.095582,-6.10298 -0.180897,-0.23631 -0.196752,-0.1998 -0.139278,0.32059 0.08539,0.77319 -0.251314,1.28847 -1.150897,1.76132 -0.388783,0.20436 -0.771238,0.49047 -0.84989,0.6358 -0.131243,0.24247 -0.178701,0.2311 -0.576529,-0.13847 -0.238431,-0.22148 -0.590843,-0.40034 -0.783132,-0.39747 -0.343889,0.004 -0.344986,0.01 -0.06696,0.30832 0.337421,0.36185 0.394861,1.54401 0.117067,2.40924 -0.223778,0.69699 -1.362983,1.92517 -2.145088,2.31264 -1.311493,0.64971 -3.397933,0.21816 -4.459688,-0.92238 -1.521381,-1.63432 -0.924458,-4.37762 1.202394,-5.52595 1.021176,-0.55136 2.471148,-0.34341 3.238832,0.46449 0.359767,0.37862 0.362426,0.398 0.125454,0.91462 -0.331425,0.72256 -0.565526,0.76916 -1.126857,0.22431 -0.440148,-0.42719 -0.541476,-0.45895 -1.222759,-0.38324 -1.289269,0.14333 -2.08697,1.31813 -1.728333,2.54537 0.20547,0.70311 1.281904,1.66583 2.001036,1.78966 1.886684,0.3249 3.650159,-1.75769 3.173027,-3.7472 -0.148649,-0.61982 -0.123901,-0.83344 0.213713,-1.84513 0.740658,-2.21941 0.326386,-5.64977 -0.854696,-7.07724 -0.233505,-0.28224 -0.237167,-0.27775 -0.09169,0.11165 0.157462,0.42147 0.08325,0.85558 -0.146852,0.85901 -0.07307,9.2e-4 -0.133883,-0.0682 -0.135176,-0.15405 -0.0013,-0.0858 -0.281035,-0.27586 -0.621679,-0.42229 -0.776196,-0.33373 -1.374276,-0.15738 -1.702917,0.50206 -0.215174,0.43176 -0.212755,0.44925 0.04677,0.33826 0.615452,-0.26321 0.833087,-0.26717 1.391662,-0.0253 1.083062,0.46908 1.735785,1.78724 1.755171,3.54443 0.01169,1.06312 -0.220626,2.30954 -0.431124,2.31266 -0.04324,9.2e-4 -0.332612,-0.19389 -0.643044,-0.4323 -0.747858,-0.57437 -1.218888,-0.73089 -2.146197,-0.71312 -1.547863,0.0297 -3.053668,1.17689 -3.874242,2.95171 -0.26561,0.57447 -0.482437,1.21379 -0.481839,1.42069 0.001,0.35836 -0.0074,0.3622 -0.179119,0.0813 -0.248778,-0.40712 -0.232069,-2.73137 0.02887,-4.01773 0.656026,-3.23388 3.237448,-7.92246 6.188318,-11.23971 l 0.794208,-0.89282 0.107194,1.40013 c 0.08406,1.09771 0.192524,1.56084 0.502234,2.14417 0.481643,0.90714 1.532066,1.87568 2.293055,2.11431 0.83161,0.26076 2.148331,0.10422 2.706877,-0.32171 0.581654,-0.44359 0.993973,-1.35895 0.851908,-1.89124 -0.07458,-0.27943 -0.05156,-0.37719 0.07909,-0.3358 0.315449,0.1 0.748046,0.77216 0.897799,1.39507 0.152666,0.63505 0.01072,2.04669 -0.258259,2.56776 -0.268815,0.52082 -1.135033,1.08794 -2.025937,1.32639 -1.358566,0.36363 -1.636356,0.52055 -1.884598,1.06448 -0.290108,0.63567 -0.149497,1.49051 0.281786,1.71313 0.290384,0.14987 0.292462,0.14272 0.05429,-0.18672 -0.316291,-0.43754 -0.312802,-0.51035 0.04196,-0.87588 0.252465,-0.2601 0.494041,-0.30539 1.743393,-0.32681 1.833083,-0.0316 2.514704,-0.31292 3.042192,-1.256 0.577327,-1.03216 0.708502,-1.7782 0.499455,-2.84053 -0.329819,-1.67607 -1.213728,-3.06126 -2.288059,-3.58568 -0.89489,-0.43681 -1.613712,-0.44618 -2.129674,-0.0278 -0.467404,0.37905 -0.515283,0.67383 -0.06927,0.42652 0.453242,-0.25135 0.99034,0.0292 1.265475,0.66106 0.193888,0.44525 0.19742,0.58636 0.02546,1.01583 -0.568882,1.42075 -2.233792,1.55558 -3.703869,0.29998 -0.93934,-0.80228 -1.355892,-1.67639 -1.366793,-2.86809 -0.01517,-1.66028 0.818768,-3.0338 2.279075,-3.75364 0.581302,-0.28657 1.871747,-0.32109 2.608847,-0.0697 2.05685,0.70117 3.942036,3.31105 4.633214,6.41433 0.256035,1.14958 0.903272,6.11292 0.916082,7.025 0.0053,0.37098 -0.111292,0.838 -0.280788,1.12555 -0.367916,0.62419 -0.361712,1.02801 0.01915,1.25816 0.165154,0.0998 0.302536,0.33261 0.305293,0.51746 0.0028,0.19959 0.09566,0.33475 0.228148,0.33278 0.132509,-9.2e-4 0.221098,-0.13985 0.218121,-0.33943 -0.0028,-0.18486 0.127627,-0.42171 0.289726,-0.52633 0.357717,-0.23091 0.36917,-0.64181 0.03524,-1.2646 -0.204236,-0.38091 -0.236739,-0.72901 -0.176217,-1.88703 0.0969,-1.85369 0.527115,-4.86334 0.892278,-6.24199 0.772795,-2.91757 2.421578,-5.39309 4.128907,-6.19929 1.390781,-0.65672 3.250119,-0.21903 4.345779,1.02301 0.696902,0.79 0.886175,1.39565 0.840204,2.68863 -0.03227,0.90945 -0.116196,1.20913 -0.544562,1.94591 -0.683501,1.17556 -1.657327,1.79106 -2.716329,1.71678 -0.614567,-0.043 -0.817806,-0.13877 -1.236188,-0.58186 -0.394927,-0.41819 -0.50264,-0.65788 -0.509748,-1.13424 -0.01196,-0.7962 0.531819,-1.40425 1.179461,-1.31906 0.537481,0.0707 0.560745,-0.10161 0.05686,-0.42113 -0.600326,-0.38065 -1.680113,-0.19086 -2.544793,0.44734 -0.76846,0.56718 -1.565085,1.77753 -1.814943,2.75755 -0.220212,0.86375 -0.04562,2.44694 0.358528,3.25098 0.556078,1.10631 1.018017,1.32814 2.889447,1.38741 1.404035,0.0445 1.637683,0.0906 1.937505,0.38195 0.297897,0.28954 0.316927,0.37111 0.150736,0.64627 -0.157382,0.26059 -0.156327,0.30313 0.0064,0.24646 0.285485,-0.0995 0.468167,-0.76014 0.341484,-1.23479 -0.189025,-0.70823 -0.82913,-1.18278 -1.842737,-1.36622 -0.505093,-0.0915 -1.095951,-0.30162 -1.313022,-0.46718 -1.16388,-0.88774 -1.481177,-3.31793 -0.586367,-4.4911 0.40792,-0.53482 0.574056,-0.50094 0.485851,0.099 -0.09398,0.63928 0.25174,1.29211 0.962635,1.81776 0.426403,0.31526 0.74312,0.41176 1.457479,0.44403 1.150027,0.052 1.821116,-0.23088 2.702588,-1.13907 0.949443,-0.97819 1.266398,-1.81388 1.257002,-3.31412 -0.0046,-0.67454 0.04042,-1.22756 0.09917,-1.22899 0.183855,-0.005 2.231377,2.63499 3.53644,4.55874 2.767317,4.07913 3.948257,7.34269 3.740147,10.33588 -0.0937,1.34722 -0.30103,1.68098 -0.4572,0.7359 -0.20471,-1.23877 -1.53259,-3.04415 -2.743213,-3.72953 -0.525132,-0.29734 -0.869614,-0.37432 -1.666936,-0.37256 -1.082414,0.003 -1.722429,0.24662 -2.428617,0.92683 l -0.390251,0.37591 -0.204461,-0.34681 c -0.130588,-0.2215 -0.209687,-0.83067 -0.218899,-1.6857 -0.01678,-1.56 0.298658,-2.47936 1.165188,-3.39573 0.687131,-0.72666 1.260889,-0.8684 1.838854,-0.45428 l 0.43415,0.31108 -0.0064,-0.42767 c -0.0143,-0.95492 -1.329895,-1.30758 -2.252617,-0.60388 l -0.468607,0.35739 0.05931,-0.45083 c 0.07691,-0.58468 -0.179483,-0.49068 -0.673903,0.24712 -0.574858,0.85779 -0.818773,1.77467 -0.881243,3.3126 -0.04748,1.1698 9.16e-4,1.6064 0.281525,2.52521 0.18645,0.61095 0.33956,1.29495 0.340238,1.52 9.17e-4,0.22502 -0.0064,0.79426 -0.01568,1.26493 -0.02814,1.41896 0.599379,2.48413 1.769059,3.00295 1.721374,0.76352 3.491829,-0.31528 3.465044,-2.11138 -0.01247,-0.84257 -0.349331,-1.37701 -1.105049,-1.75362 -0.559247,-0.2787 -1.496178,-0.17457 -1.911188,0.21242 -0.278143,0.25938 -0.303974,0.25296 -0.759134,-0.18885 -0.464281,-0.45061 -0.467489,-0.4632 -0.218441,-0.85594 0.524964,-0.82787 2.381821,-1.27757 3.318284,-0.80365 0.222657,0.11262 0.656031,0.45771 0.96303,0.76677 1.485597,1.49542 1.600277,3.52146 0.286384,5.05977 -1.057868,1.23857 -2.154225,1.51957 -3.831874,0.98212 -1.209601,-0.38749 -1.960697,-0.98325 -2.432466,-1.92942 -0.665058,-1.33379 -0.668202,-1.81213 -0.02044,-3.11799 0.158812,-0.32018 -0.648649,-0.0393 -1.036874,0.36072 -0.343767,0.35418 -0.48002,0.41765 -0.577415,0.269 -0.07012,-0.10697 -0.129213,-0.24213 -0.13134,-0.30026 -0.0018,-0.0581 -0.334591,-0.3152 -0.738821,-0.57132 -1.033925,-0.65505 -1.457979,-1.59032 -1.08494,-2.39287 0.146942,-0.31615 0.14439,-0.31733 -0.07492,-0.0351 -0.499245,0.64256 -0.314266,1.68827 0.603618,3.41229 1.570427,2.94964 4.017853,4.75527 6.595491,4.86593 1.043878,0.0447 1.25526,0.006 1.980041,-0.3619 0.833888,-0.42355 1.661223,-1.27469 2.137653,-2.19921 l 0.27042,-0.52479 0.0129,0.52056 c 0.0278,1.11925 -1.20261,3.16597 -2.367281,3.9381 -0.680726,0.4513 -0.847943,0.49405 -2.160275,0.55237 -1.199536,0.0532 -1.567127,0.011 -2.34586,-0.27272 z m 1.57776,-3.94469 c -0.426092,-0.0764 -1.09148,-0.72624 -1.353902,-1.32221 -0.208385,-0.47326 -0.307742,-1.67407 -0.138728,-1.67657 0.321456,-0.005 0.954173,0.56172 1.203478,1.07756 0.261148,0.54035 0.353786,0.61025 0.799779,0.60362 0.60673,-0.01 0.920816,-0.38904 0.653709,-0.7909 -0.09424,-0.14181 -0.313113,-0.2504 -0.486381,-0.24131 -0.347874,0.0182 -0.416523,-0.2201 -0.144209,-0.50068 0.188795,-0.19449 0.831798,-0.24923 1.226724,-0.10436 0.326534,0.11976 0.688524,0.82537 0.696462,1.35761 0.0083,0.51252 -0.435259,1.14276 -1.025507,1.45923 -0.412371,0.2211 -0.773939,0.25597 -1.431425,0.13805 z m -26.899842,-0.40815 c -0.697378,-0.62472 -0.844488,-1.32227 -0.425042,-2.01538 0.334561,-0.55284 0.898936,-0.76263 1.428277,-0.53092 0.4439,0.1943 0.50615,0.61737 0.07527,0.51151 -0.213382,-0.0524 -0.341466,0.0351 -0.465236,0.31786 -0.143797,0.32848 -0.127448,0.43664 0.10344,0.68425 0.150831,0.16176 0.426356,0.29183 0.612277,0.28905 0.380819,-0.005 0.945137,-0.65221 0.938821,-1.0756 -0.0022,-0.15259 0.08808,-0.27881 0.200781,-0.2805 0.112708,-9.2e-4 0.286753,-0.10464 0.386773,-0.22894 0.30248,-0.37573 0.442476,-0.26111 0.45189,0.37 0.02024,1.35694 -0.716882,2.25118 -1.955683,2.37254 -0.746135,0.073 -0.840091,0.0445 -1.351575,-0.41387 z m 14.178361,-10.94137 c -0.008,-0.34767 -0.112859,-0.79804 -0.232841,-1.00083 -0.306582,-0.51823 -0.285799,-0.76118 0.112791,-1.31867 l 0.348381,-0.48725 0.346855,0.54295 c 0.312267,0.48881 0.328002,0.58941 0.157774,1.00874 -0.10399,0.25621 -0.214193,0.78424 -0.244888,1.17339 -0.07398,0.93806 -0.466627,1.00375 -0.48807,0.0817 z m -0.781371,-3.66994 c -0.321525,-1.51468 -1.294682,-3.17578 -2.614455,-4.46273 -1.393182,-1.35852 -2.533322,-1.94792 -3.455492,-1.78631 -0.491627,0.0861 -0.580304,0.0616 -0.579149,-0.16043 0.0021,-0.4133 0.334369,-0.92922 0.804461,-1.24926 0.85274,-0.58056 1.482231,-0.35255 2.841925,1.02937 1.984782,2.01721 3.409283,4.76915 3.437191,6.64019 0.01525,1.02212 -0.216432,1.01635 -0.43448,-0.011 z m 1.478771,0.0887 c -0.0234,-1.80436 1.235557,-4.50663 2.993792,-6.42707 1.73299,-1.89284 2.898055,-2.1894 3.87395,-0.98612 0.174101,0.21465 0.318687,0.53421 0.321317,0.71013 0.0046,0.29081 -0.07287,0.32054 -0.850657,0.3274 -1.194982,0.011 -2.088458,0.50211 -3.445212,1.8955 -1.310787,1.34617 -2.212065,2.92182 -2.467088,4.31306 -0.09522,0.51946 -0.227786,0.94529 -0.294594,0.94626 -0.06681,9.1e-4 -0.125977,-0.34964 -0.131504,-0.77916 z m -0.632446,-2.39228 c -0.01944,-1.30301 -0.302853,-2.79773 -1.226816,-6.47012 -0.891256,-3.54243 -0.774188,-5.46064 0.477259,-7.82007 0.277805,-0.52377 0.581992,-1.24269 0.675965,-1.59761 l 0.170868,-0.64531 0.192437,0.59228 c 0.105847,0.32577 0.437723,1.09915 0.737509,1.7186 1.1676,2.41272 1.324557,4.07214 0.645121,6.82042 -0.592692,2.39737 -1.074977,4.79955 -1.3036,6.493 -0.219077,1.62275 -0.353164,1.95321 -0.368743,0.90881 z m -1.753624,-2.91658 c -0.230847,-0.33776 -0.812526,-1.08231 -1.292628,-1.65457 -1.067508,-1.27244 -1.506433,-2.08995 -1.633738,-3.04293 -0.169086,-1.2657 0.3644,-2.05734 1.262879,-1.87402 0.867921,0.17709 1.274375,1.24412 1.706067,4.47877 0.177795,1.33223 0.363914,2.48585 0.41359,2.56362 0.04967,0.078 0.06181,0.14182 0.02693,0.14234 -0.03485,4.4e-4 -0.252268,-0.27541 -0.483108,-0.61321 z m 3.422023,0.19739 c 0.03163,-0.24598 0.122045,-1.11774 0.200865,-1.93723 0.254279,-2.64337 0.733776,-4.10165 1.544533,-4.69737 0.54333,-0.39924 0.785663,-0.4021 1.14745,-0.0137 0.223989,0.24051 0.290047,0.52909 0.297026,1.29747 0.01141,1.25609 -0.205589,1.71781 -1.64265,3.49541 -0.623745,0.77154 -1.239986,1.60524 -1.36942,1.8527 l -0.235339,0.44984 z m -6.895233,-3.55636 c -0.425173,-0.26703 -0.714545,-0.27047 -1.349059,-0.0161 -0.22529,0.0904 -0.216913,0.0273 0.06436,-0.48387 0.177848,-0.32326 0.54879,-0.85334 0.824311,-1.17796 l 0.500944,-0.59022 0.01004,0.67549 c 0.0057,0.37151 0.111636,0.95019 0.235767,1.28597 0.12412,0.33578 0.211851,0.6058 0.194937,0.60007 -0.01693,-0.005 -0.233518,-0.13777 -0.481342,-0.2934 z m 10.405976,-0.37865 c 0.05713,-0.32041 0.141377,-0.91327 0.187214,-1.31745 l 0.08333,-0.73491 0.395009,0.57898 c 0.217252,0.31843 0.510638,0.79484 0.651969,1.05868 l 0.256955,0.47974 -0.491367,0.006 c -0.27025,0.005 -0.647884,0.12045 -0.839187,0.25877 l -0.347813,0.25144 z m -7.990575,-3.66573 c -0.195553,-0.15803 -0.48201,-0.28544 -0.636579,-0.28313 -0.154565,0.003 -0.281457,-0.0245 -0.281982,-0.0597 -0.0016,-0.11371 1.154816,-1.86532 1.287547,-1.95011 0.07154,-0.0457 0.08506,0.17779 0.03046,0.50377 -0.05397,0.32225 -0.06066,0.92314 -0.01484,1.33529 0.04581,0.41217 0.05803,0.74753 0.02711,0.74527 -0.03091,-0.003 -0.216183,-0.13337 -0.411734,-0.29142 z m 5.520518,-0.98243 c 0.0033,-0.64721 0.02037,-1.17726 0.03778,-1.17788 0.05967,-0.003 1.25915,1.74961 1.260514,1.84097 9.17e-4,0.0501 -0.06843,0.0497 -0.153703,-9.2e-4 -0.0853,-0.051 -0.379092,0.044 -0.652897,0.21115 l -0.497829,0.30384 z"
   id="path2987"
   inkscape:connector-curvature="0"
   sodipodi:nodetypes="scsssscssssssssssscssssssssssssscssssssscccsssssssssssssssssssssscssssssscsscsscssssssssssssssssssssssssscssscssssssssssssssssscssscscssssssssssssssssssssssssssssssssssssssssssscsssssssssssssssssssssssssscscsssssssssssscsssssssssssssssssssssssssscsssscsscsssscssssssssssssssscssssssscsssccsssssscssssssssssssssssssssscssssssscssssssssssssssssscsssssssssscssssssssscssssscsscssscsscsscsssscssssscscscs" /></svg>
